<?xml version="1.0" encoding="utf-8"?>
<!-- Generator: Adobe Illustrator 21.1.0, SVG Export Plug-In . SVG Version: 6.00 Build 0)  -->
<svg version="1.1" id="Layer_1" xmlns="http://www.w3.org/2000/svg" xmlns:xlink="http://www.w3.org/1999/xlink" x="0px" y="0px"
	 viewBox="0 0 750 750" style="enable-background:new 0 0 750 750;" xml:space="preserve">
<style type="text/css">
	.st0{fill:#FFFFFF;}
	.st1{fill:none;stroke:#FFFFFF;stroke-width:35;stroke-miterlimit:10;}
	.st2{fill:#4D5656;}
	.st3{fill:none;stroke:#4D5656;stroke-width:35;stroke-miterlimit:10;}
</style>
<g>
	<path class="st2" d="M253.1,272.9H194l-12.3,39.3h-38.2L205,129.8h37.4l61.2,182.4h-38.2L253.1,272.9z M203,244.2h41.2L224,179.9
		h-0.8L203,244.2z"/>
	<path class="st2" d="M357.8,239.3v72.9h-36.6V129.8h63.1c20.8,0,37,4.7,48.8,14.2c11.7,9.5,17.6,22.7,17.6,39.6
		c0,9.4-2.5,17.4-7.5,24.2c-5,6.8-12.2,12.3-21.7,16.5c10.8,3.2,18.5,8.5,23.2,15.9c4.7,7.4,7.1,16.6,7.1,27.6v13.4
		c0,5.1,0.7,10.4,2.1,16c1.4,5.6,3.7,9.7,7.1,12.3v2.6h-37.7c-3.3-2.7-5.5-7.1-6.5-13.3c-1-6.2-1.4-12.1-1.4-17.9v-12.9
		c0-9.1-2.5-16.2-7.5-21.2c-5-5.1-12-7.6-21.1-7.6H357.8z M357.8,211.1h25.9c10.3,0,17.9-2.2,22.9-6.5c5-4.3,7.5-10.8,7.5-19.3
		c0-8.3-2.5-15-7.6-19.9c-5.1-4.9-12.5-7.4-22.2-7.4h-26.6V211.1z"/>
	<path class="st2" d="M605.5,158h-52.1v154.2h-36.6V158h-51.3v-28.2h140V158z"/>
</g>
<g>
	<path class="st2" d="M262.7,567.9c0-7-2.4-12.6-7.3-16.9c-4.9-4.3-13.5-8.3-25.7-12c-21-6.3-37-13.8-47.9-22.4
		c-10.9-8.6-16.3-20.3-16.3-35.2c0-14.9,6.1-27.2,18.4-36.6c12.3-9.5,27.9-14.2,47-14.2c20.2,0,36.5,5.1,48.8,15.3
		c12.3,10.2,18.3,23.5,17.8,40.1l-0.3,0.8h-35.4c0-9.1-2.8-16.1-8.3-21c-5.5-4.9-13.2-7.3-23.2-7.3c-9,0-16,2.2-20.9,6.5
		c-4.9,4.3-7.4,9.9-7.4,16.7c0,6.2,2.7,11.3,8,15.2c5.3,4,14.6,8.2,27.7,12.6c20,5.7,35.3,13.1,45.8,22.2s15.8,21.2,15.8,36.1
		c0,15.6-6.1,27.9-18.3,36.9c-12.2,9-28.3,13.5-48.3,13.5c-19.6,0-36.5-4.9-50.5-14.7c-14.1-9.8-20.9-24.3-20.5-43.7l0.2-0.8h35.4
		c0,10.8,3.2,18.7,9.5,23.8c6.3,5.1,14.9,7.6,25.8,7.6c9.8,0,17.2-2,22.4-6.1C260.2,580.2,262.7,574.7,262.7,567.9z"/>
	<path class="st2" d="M453.3,461.3h-52.1v154.2h-36.6V461.3h-51.3v-28.2h140V461.3z"/>
	<path class="st2" d="M509.9,587.4h81.7v28.1H473.4V433.1h36.6V587.4z"/>
</g>
<rect x="67.8" y="65" class="st3" width="614.4" height="614.4"/>
<line class="st3" x1="67.8" y1="372.2" x2="682.2" y2="372.2"/>
</svg>
